<svg width="140" height="24" viewBox="0 0 140 24" fill="none" xmlns="http://www.w3.org/2000/svg">
<path d="M21.947 9.17901C21.8842 8.99388 21.7685 8.83121 21.6142 8.71107C21.46 8.59094 21.2739 8.51861 21.079 8.50301L15.378 8.05001L12.911 2.58901C12.8325 2.41313 12.7047 2.26374 12.5431 2.15887C12.3815 2.05401 12.193 1.99815 12.0004 1.99805C11.8077 1.99794 11.6192 2.05359 11.4575 2.15828C11.2957 2.26296 11.1678 2.41221 11.089 2.58801L8.62203 8.05001L2.92103 8.50301C2.72948 8.51819 2.54636 8.58822 2.39358 8.70475C2.2408 8.82127 2.12482 8.97934 2.05952 9.16004C1.99422 9.34075 1.98236 9.53645 2.02537 9.72372C2.06838 9.91099 2.16443 10.0819 2.30203 10.216L6.51503 14.323L5.02503 20.775C4.97978 20.9703 4.99428 21.1747 5.06665 21.3617C5.13901 21.5486 5.26589 21.7095 5.43083 21.8235C5.59577 21.9374 5.79115 21.9991 5.99161 22.0007C6.19208 22.0022 6.38837 21.9434 6.55503 21.832L12 18.202L17.445 21.832C17.6154 21.9451 17.8162 22.0033 18.0207 21.9988C18.2251 21.9944 18.4232 21.9274 18.5884 21.8069C18.7536 21.6865 18.878 21.5183 18.9448 21.3251C19.0116 21.1318 19.0176 20.9228 18.962 20.726L17.133 14.326L21.669 10.244C21.966 9.97601 22.075 9.55801 21.947 9.17901Z" fill="#F9BD2C"/>
<path d="M50.947 9.17901C50.8842 8.99388 50.7685 8.83121 50.6142 8.71107C50.46 8.59094 50.2739 8.51861 50.079 8.50301L44.378 8.05001L41.911 2.58901C41.8325 2.41313 41.7047 2.26374 41.5431 2.15887C41.3815 2.05401 41.193 1.99815 41.0004 1.99805C40.8077 1.99794 40.6192 2.05359 40.4575 2.15828C40.2957 2.26296 40.1678 2.41221 40.089 2.58801L37.622 8.05001L31.921 8.50301C31.7295 8.51819 31.5464 8.58822 31.3936 8.70475C31.2408 8.82127 31.1248 8.97934 31.0595 9.16004C30.9942 9.34075 30.9824 9.53645 31.0254 9.72372C31.0684 9.91099 31.1644 10.0819 31.302 10.216L35.515 14.323L34.025 20.775C33.9798 20.9703 33.9943 21.1747 34.0666 21.3617C34.139 21.5486 34.2659 21.7095 34.4308 21.8235C34.5958 21.9374 34.7911 21.9991 34.9916 22.0007C35.1921 22.0022 35.3884 21.9434 35.555 21.832L41 18.202L46.445 21.832C46.6154 21.9451 46.8162 22.0033 47.0207 21.9988C47.2251 21.9944 47.4232 21.9274 47.5884 21.8069C47.7536 21.6865 47.878 21.5183 47.9448 21.3251C48.0116 21.1318 48.0176 20.9228 47.962 20.726L46.133 14.326L50.669 10.244C50.966 9.97601 51.075 9.55801 50.947 9.17901Z" fill="#F9BD2C"/>
<path d="M79.947 9.17901C79.8842 8.99388 79.7685 8.83121 79.6142 8.71107C79.46 8.59094 79.2739 8.51861 79.079 8.50301L73.378 8.05001L70.911 2.58901C70.8325 2.41313 70.7047 2.26374 70.5431 2.15887C70.3815 2.05401 70.193 1.99815 70.0004 1.99805C69.8077 1.99794 69.6192 2.05359 69.4575 2.15828C69.2957 2.26296 69.1678 2.41221 69.089 2.58801L66.622 8.05001L60.921 8.50301C60.7295 8.51819 60.5464 8.58822 60.3936 8.70475C60.2408 8.82127 60.1248 8.97934 60.0595 9.16004C59.9942 9.34075 59.9824 9.53645 60.0254 9.72372C60.0684 9.91099 60.1644 10.0819 60.302 10.216L64.515 14.323L63.025 20.775C62.9798 20.9703 62.9943 21.1747 63.0666 21.3617C63.139 21.5486 63.2659 21.7095 63.4308 21.8235C63.5958 21.9374 63.7911 21.9991 63.9916 22.0007C64.1921 22.0022 64.3884 21.9434 64.555 21.832L70 18.202L75.445 21.832C75.6154 21.9451 75.8162 22.0033 76.0207 21.9988C76.2251 21.9944 76.4232 21.9274 76.5884 21.8069C76.7536 21.6865 76.878 21.5183 76.9448 21.3251C77.0116 21.1318 77.0176 20.9228 76.962 20.726L75.133 14.326L79.669 10.244C79.966 9.97601 80.075 9.55801 79.947 9.17901Z" fill="#F9BD2C"/>
<path d="M108.947 9.17901C108.884 8.99388 108.768 8.83121 108.614 8.71107C108.46 8.59094 108.274 8.51861 108.079 8.50301L102.378 8.05001L99.911 2.58901C99.8325 2.41313 99.7047 2.26374 99.5431 2.15887C99.3815 2.05401 99.193 1.99815 99.0004 1.99805C98.8077 1.99794 98.6192 2.05359 98.4575 2.15828C98.2957 2.26296 98.1678 2.41221 98.089 2.58801L95.622 8.05001L89.921 8.50301C89.7295 8.51819 89.5464 8.58822 89.3936 8.70475C89.2408 8.82127 89.1248 8.97934 89.0595 9.16004C88.9942 9.34075 88.9824 9.53645 89.0254 9.72372C89.0684 9.91099 89.1644 10.0819 89.302 10.216L93.515 14.323L92.025 20.775C91.9798 20.9703 91.9943 21.1747 92.0666 21.3617C92.139 21.5486 92.2659 21.7095 92.4308 21.8235C92.5958 21.9374 92.7911 21.9991 92.9916 22.0007C93.1921 22.0022 93.3884 21.9434 93.555 21.832L99 18.202L104.445 21.832C104.615 21.9451 104.816 22.0033 105.021 21.9988C105.225 21.9944 105.423 21.9274 105.588 21.8069C105.754 21.6865 105.878 21.5183 105.945 21.3251C106.012 21.1318 106.018 20.9228 105.962 20.726L104.133 14.326L108.669 10.244C108.966 9.97601 109.075 9.55801 108.947 9.17901Z" fill="#F9BD2C"/>
<path d="M137.947 9.17901C137.884 8.99388 137.768 8.83121 137.614 8.71107C137.46 8.59094 137.274 8.51861 137.079 8.50301L131.378 8.05001L128.911 2.58901C128.832 2.41313 128.705 2.26374 128.543 2.15887C128.381 2.05401 128.193 1.99815 128 1.99805C127.808 1.99794 127.619 2.05359 127.457 2.15828C127.296 2.26296 127.168 2.41221 127.089 2.58801L124.622 8.05001L118.921 8.50301C118.729 8.51819 118.546 8.58822 118.394 8.70475C118.241 8.82127 118.125 8.97934 118.059 9.16004C117.994 9.34075 117.982 9.53645 118.025 9.72372C118.068 9.91099 118.164 10.0819 118.302 10.216L122.515 14.323L121.025 20.775C120.98 20.9703 120.994 21.1747 121.067 21.3617C121.139 21.5486 121.266 21.7095 121.431 21.8235C121.596 21.9374 121.791 21.9991 121.992 22.0007C122.192 22.0022 122.388 21.9434 122.555 21.832L128 18.202L133.445 21.832C133.615 21.9451 133.816 22.0033 134.021 21.9988C134.225 21.9944 134.423 21.9274 134.588 21.8069C134.754 21.6865 134.878 21.5183 134.945 21.3251C135.012 21.1318 135.018 20.9228 134.962 20.726L133.133 14.326L137.669 10.244C137.966 9.97601 138.075 9.55801 137.947 9.17901Z" fill="#F9BD2C"/>
</svg>
